<svg xmlns="http://www.w3.org/2000/svg" width="160" height="160" viewBox="0 0 160 160">
  <rect width="160" height="160" rx="22" fill="#1c1412"/>
  <rect x="6" y="6" width="148" height="148" rx="18" fill="none" stroke="#c9a465" stroke-opacity="0.80" stroke-width="3"/>
  <rect x="14" y="14" width="132" height="132" rx="14" fill="none" stroke="#f0deae" stroke-opacity="0.11" stroke-width="1.5"/>
  <ellipse cx="80" cy="136" rx="42" ry="10" fill="#09090d" opacity="0.58"/>
  <path d="M54 98 L106 98 L114 138 L46 138 Z" fill="#6d2f24"/>
  <path d="M56 50 C60 28, 100 28, 104 50 L110 78 C112 94, 98 106, 80 106 C62 106, 48 94, 50 78 Z" fill="#67423a"/>
  <circle cx="80" cy="52" r="16" fill="#e4c5a7"/>
  <path d="M105 90 L124 55" stroke="#c9b079" stroke-width="6" stroke-linecap="round"/>
  <path d="M119 50 L131 45 L126 58 Z" fill="#efda9f"/>
  <path d="M70 70 C74 66, 86 66, 90 70" stroke="#5c3127" stroke-width="4" fill="none" stroke-linecap="round"/>
</svg>
