<svg xmlns="http://www.w3.org/2000/svg" width="1200" height="520" viewBox="0 0 1200 520">
  <defs>
    <linearGradient id="bg" x1="0" y1="0" x2="1" y2="0">
      <stop offset="0%" stop-color="#271a17"/>
      <stop offset="36%" stop-color="#161317"/>
      <stop offset="64%" stop-color="#171216"/>
      <stop offset="100%" stop-color="#251511"/>
    </linearGradient>
    <linearGradient id="hero" x1="0" y1="0" x2="1" y2="0">
      <stop offset="0%" stop-color="#6d3b25" stop-opacity="0.24"/>
      <stop offset="100%" stop-color="#6d3b25" stop-opacity="0.02"/>
    </linearGradient>
    <linearGradient id="enemy" x1="0" y1="0" x2="1" y2="0">
      <stop offset="0%" stop-color="#742d1d" stop-opacity="0.02"/>
      <stop offset="100%" stop-color="#742d1d" stop-opacity="0.24"/>
    </linearGradient>
  </defs>
  <rect width="1200" height="520" rx="24" fill="url(#bg)"/>
  <rect x="10" y="10" width="1180" height="500" rx="20" fill="none" stroke="#896a35" stroke-opacity="0.46" stroke-width="2"/>
  <rect x="28" y="28" width="262" height="464" rx="18" fill="url(#hero)"/>
  <rect x="910" y="28" width="262" height="464" rx="18" fill="url(#enemy)"/>
  <rect x="564" y="22" width="72" height="476" rx="26" fill="#08080a" fill-opacity="0.34"/>
  <rect x="598" y="32" width="4" height="456" rx="2" fill="#d5b66e" fill-opacity="0.72"/>
  <g stroke="#d1b170" stroke-opacity="0.10" stroke-width="2" fill="none">
    <path d="M46 96 C170 130, 232 182, 286 258"/>
    <path d="M72 428 C190 382, 228 340, 292 272"/>
    <path d="M908 98 C1034 140, 1098 198, 1150 256"/>
    <path d="M902 432 C1018 388, 1084 338, 1140 262"/>
  </g>
  <g fill="#d5b66e" fill-opacity="0.12">
    <circle cx="130" cy="260" r="74"/>
    <circle cx="1070" cy="260" r="74"/>
  </g>
</svg>
