<svg xmlns="http://www.w3.org/2000/svg" width="1600" height="900" viewBox="0 0 1600 900">
  <defs>
    <radialGradient id="bg" cx="50%" cy="42%" r="78%">
      <stop offset="0%" stop-color="#4c1f16"/>
      <stop offset="58%" stop-color="#201411"/>
      <stop offset="100%" stop-color="#090909"/>
    </radialGradient>
    <linearGradient id="vignette" x1="0" y1="0" x2="0" y2="1">
      <stop offset="0%" stop-color="#f3d88b" stop-opacity="0.10"/>
      <stop offset="15%" stop-color="#f3d88b" stop-opacity="0.02"/>
      <stop offset="100%" stop-color="#000000" stop-opacity="0.0"/>
    </linearGradient>
  </defs>
  <rect width="1600" height="900" fill="url(#bg)"/>
  <rect x="18" y="18" width="1564" height="864" rx="28" fill="none" stroke="#8f7440" stroke-opacity="0.78" stroke-width="2"/>
  <rect x="34" y="34" width="1532" height="832" rx="24" fill="none" stroke="#cfb06a" stroke-opacity="0.22" stroke-width="1.5"/>
  <rect x="0" y="0" width="1600" height="900" fill="url(#vignette)"/>
  <g fill="#d6b46a" fill-opacity="0.24">
    <path d="M76 82 h64 v8 h-24 l18 18 -6 6 -20-20 v24 h-8 v-24 l-18 20 -6-6 18-18 h-18z"/>
    <path d="M1460 82 h64 v8 h-24 l18 18 -6 6 -20-20 v24 h-8 v-24 l-18 20 -6-6 18-18 h-18z"/>
    <path d="M76 792 h64 v8 h-24 l18 18 -6 6 -20-20 v24 h-8 v-24 l-18 20 -6-6 18-18 h-18z"/>
    <path d="M1460 792 h64 v8 h-24 l18 18 -6 6 -20-20 v24 h-8 v-24 l-18 20 -6-6 18-18 h-18z"/>
  </g>
  <g stroke="#f1d084" stroke-opacity="0.10" stroke-width="2" fill="none">
    <path d="M120 210 C360 90, 520 98, 790 180"/>
    <path d="M808 180 C1040 248, 1190 250, 1460 156"/>
    <path d="M120 710 C350 792, 610 798, 820 732"/>
    <path d="M860 734 C1090 658, 1240 648, 1460 724"/>
  </g>
</svg>
